HIERARCHY
ROOT mixamorig:Hips
{
	OFFSET -0.000007 0.000048 -99.791939
	CHANNELS 6 Xposition Yposition Zposition Xrotation Yrotation Zrotation
	JOINT mixamorig:Spine
	{
		OFFSET -0.000008 -1.227335 -9.923462
		CHANNELS 3 Xrotation Yrotation Zrotation
		JOINT mixamorig:Spine1
		{
			OFFSET -0.001162 -1.422341 -11.645439
			CHANNELS 3 Xrotation Yrotation Zrotation
			JOINT mixamorig:Spine2
			{
				OFFSET -0.001082 -1.626459 -13.360199
				CHANNELS 3 Xrotation Yrotation Zrotation
				JOINT mixamorig:Neck
				{
					OFFSET -0.001294 0.792904 -15.032486
					CHANNELS 3 Xrotation Yrotation Zrotation
					JOINT mixamorig:Head
					{
						OFFSET -0.000902 3.142429 -10.321838
						CHANNELS 3 Xrotation Yrotation Zrotation
						JOINT mixamorig:HeadTop_End
						{
							OFFSET -0.001464 6.636400 -18.474670
							CHANNELS 3 Xrotation Yrotation Zrotation
							End Site
							{
								OFFSET -0.001724 0.000000 -19.630463
							}
						}
					}
				}
				JOINT mixamorig:LeftShoulder
				{
					OFFSET 6.105025 0.705547 -9.110947
					CHANNELS 3 Xrotation Yrotation Zrotation
					JOINT mixamorig:LeftArm
					{
						OFFSET 12.655060 -2.600928 0.264816
						CHANNELS 3 Xrotation Yrotation Zrotation
						JOINT mixamorig:LeftForeArm
						{
							OFFSET 27.404680 -0.000007 -0.002457
							CHANNELS 3 Xrotation Yrotation Zrotation
							JOINT mixamorig:LeftHand
							{
								OFFSET 27.614456 0.000007 -0.002457
								CHANNELS 3 Xrotation Yrotation Zrotation
								JOINT mixamorig:LeftHandThumb1
								{
									OFFSET 3.789009 3.002973 2.166824
									CHANNELS 3 Xrotation Yrotation Zrotation
									JOINT mixamorig:LeftHandThumb2
									{
										OFFSET 3.675636 2.122010 2.121704
										CHANNELS 3 Xrotation Yrotation Zrotation
										JOINT mixamorig:LeftHandThumb3
										{
											OFFSET 3.394531 1.959746 1.959473
											CHANNELS 3 Xrotation Yrotation Zrotation
											JOINT mixamorig:LeftHandThumb4
											{
												OFFSET 2.679504 1.546951 1.546753
												CHANNELS 3 Xrotation Yrotation Zrotation
												End Site
												{
													OFFSET 2.400604 1.964751 1.530380
												}
											}
										}
									}
								}
								JOINT mixamorig:LeftHandIndex1
								{
									OFFSET 12.266647 2.822040 0.230743
									CHANNELS 3 Xrotation Yrotation Zrotation
									JOINT mixamorig:LeftHandIndex2
									{
										OFFSET 3.891968 0.000037 -0.000336
										CHANNELS 3 Xrotation Yrotation Zrotation
										JOINT mixamorig:LeftHandIndex3
										{
											OFFSET 3.415161 -0.000010 -0.000305
											CHANNELS 3 Xrotation Yrotation Zrotation
											JOINT mixamorig:LeftHandIndex4
											{
												OFFSET 3.077995 -0.000009 -0.000275
												CHANNELS 3 Xrotation Yrotation Zrotation
												End Site
												{
													OFFSET 3.077988 0.000131 -0.000259
												}
											}
										}
									}
								}
								JOINT mixamorig:LeftHandMiddle1
								{
									OFFSET 12.775536 0.000014 -0.001129
									CHANNELS 3 Xrotation Yrotation Zrotation
									JOINT mixamorig:LeftHandMiddle2
									{
										OFFSET 3.613968 0.000000 -0.000320
										CHANNELS 3 Xrotation Yrotation Zrotation
										JOINT mixamorig:LeftHandMiddle3
										{
											OFFSET 3.459763 -0.000028 -0.000305
											CHANNELS 3 Xrotation Yrotation Zrotation
											JOINT mixamorig:LeftHandMiddle4
											{
												OFFSET 3.680191 0.000031 -0.000320
												CHANNELS 3 Xrotation Yrotation Zrotation
												End Site
												{
													OFFSET 3.680191 -0.004814 -0.000351
												}
											}
										}
									}
								}
								JOINT mixamorig:LeftHandRing1
								{
									OFFSET 12.147018 -2.216636 -0.011063
									CHANNELS 3 Xrotation Yrotation Zrotation
									JOINT mixamorig:LeftHandRing2
									{
										OFFSET 3.601181 0.000033 -0.000320
										CHANNELS 3 Xrotation Yrotation Zrotation
										JOINT mixamorig:LeftHandRing3
										{
											OFFSET 3.307320 -0.000023 -0.000305
											CHANNELS 3 Xrotation Yrotation Zrotation
											JOINT mixamorig:LeftHandRing4
											{
												OFFSET 3.660118 0.000000 -0.000320
												CHANNELS 3 Xrotation Yrotation Zrotation
												End Site
												{
													OFFSET 3.660103 0.005616 -0.000229
												}
											}
										}
									}
								}
								JOINT mixamorig:LeftHandPinky1
								{
									OFFSET 10.908218 -4.725837 0.225174
									CHANNELS 3 Xrotation Yrotation Zrotation
									JOINT mixamorig:LeftHandPinky2
									{
										OFFSET 4.136658 0.001166 -0.000351
										CHANNELS 3 Xrotation Yrotation Zrotation
										JOINT mixamorig:LeftHandPinky3
										{
											OFFSET 2.594826 -0.001180 -0.000244
											CHANNELS 3 Xrotation Yrotation Zrotation
											JOINT mixamorig:LeftHandPinky4
											{
												OFFSET 2.923874 0.000018 -0.000244
												CHANNELS 3 Xrotation Yrotation Zrotation
												End Site
												{
													OFFSET 2.923851 -0.003346 -0.000275
												}
											}
										}
									}
								}
							}
						}
					}
				}
				JOINT mixamorig:RightShoulder
				{
					OFFSET -6.106495 0.705565 -9.109970
					CHANNELS 3 Xrotation Yrotation Zrotation
					JOINT mixamorig:RightArm
					{
						OFFSET -12.655020 -2.600890 0.267136
						CHANNELS 3 Xrotation Yrotation Zrotation
						JOINT mixamorig:RightForeArm
						{
							OFFSET -27.404675 0.000019 0.002365
							CHANNELS 3 Xrotation Yrotation Zrotation
							JOINT mixamorig:RightHand
							{
								OFFSET -27.614464 0.000031 0.002396
								CHANNELS 3 Xrotation Yrotation Zrotation
								JOINT mixamorig:RightHandThumb1
								{
									OFFSET -3.788620 3.002977 2.167480
									CHANNELS 3 Xrotation Yrotation Zrotation
									JOINT mixamorig:RightHandThumb2
									{
										OFFSET -3.675247 2.122009 2.122314
										CHANNELS 3 Xrotation Yrotation Zrotation
										JOINT mixamorig:RightHandThumb3
										{
											OFFSET -3.394188 1.959755 1.960129
											CHANNELS 3 Xrotation Yrotation Zrotation
											JOINT mixamorig:RightHandThumb4
											{
												OFFSET -2.679230 1.546953 1.547195
												CHANNELS 3 Xrotation Yrotation Zrotation
												End Site
												{
													OFFSET -2.398781 1.965949 1.531693
												}
											}
										}
									}
								}
								JOINT mixamorig:RightHandIndex1
								{
									OFFSET -12.266594 2.822051 0.232895
									CHANNELS 3 Xrotation Yrotation Zrotation
									JOINT mixamorig:RightHandIndex2
									{
										OFFSET -3.891968 0.000040 0.000336
										CHANNELS 3 Xrotation Yrotation Zrotation
										JOINT mixamorig:RightHandIndex3
										{
											OFFSET -3.415161 -0.000006 0.000305
											CHANNELS 3 Xrotation Yrotation Zrotation
											JOINT mixamorig:RightHandIndex4
											{
												OFFSET -3.077988 0.000006 0.000275
												CHANNELS 3 Xrotation Yrotation Zrotation
												End Site
												{
													OFFSET -3.077980 -0.008454 -0.000229
												}
											}
										}
									}
								}
								JOINT mixamorig:RightHandMiddle1
								{
									OFFSET -12.775528 0.000025 0.001114
									CHANNELS 3 Xrotation Yrotation Zrotation
									JOINT mixamorig:RightHandMiddle2
									{
										OFFSET -3.613968 0.000005 0.000320
										CHANNELS 3 Xrotation Yrotation Zrotation
										JOINT mixamorig:RightHandMiddle3
										{
											OFFSET -3.459763 -0.000025 0.000305
											CHANNELS 3 Xrotation Yrotation Zrotation
											JOINT mixamorig:RightHandMiddle4
											{
												OFFSET -3.680191 0.000034 0.000320
												CHANNELS 3 Xrotation Yrotation Zrotation
												End Site
												{
													OFFSET -3.680168 0.012581 0.000031
												}
											}
										}
									}
								}
								JOINT mixamorig:RightHandRing1
								{
									OFFSET -12.147003 -2.216624 -0.008942
									CHANNELS 3 Xrotation Yrotation Zrotation
									JOINT mixamorig:RightHandRing2
									{
										OFFSET -3.601196 0.000037 0.000320
										CHANNELS 3 Xrotation Yrotation Zrotation
										JOINT mixamorig:RightHandRing3
										{
											OFFSET -3.307312 -0.000019 0.000290
											CHANNELS 3 Xrotation Yrotation Zrotation
											JOINT mixamorig:RightHandRing4
											{
												OFFSET -3.660118 0.000002 0.000320
												CHANNELS 3 Xrotation Yrotation Zrotation
												End Site
												{
													OFFSET -3.660110 0.002180 -0.000107
												}
											}
										}
									}
								}
								JOINT mixamorig:RightHandPinky1
								{
									OFFSET -10.908173 -4.725826 0.227081
									CHANNELS 3 Xrotation Yrotation Zrotation
									JOINT mixamorig:RightHandPinky2
									{
										OFFSET -4.136642 0.000029 0.000366
										CHANNELS 3 Xrotation Yrotation Zrotation
										JOINT mixamorig:RightHandPinky3
										{
											OFFSET -2.594841 -0.000036 0.000229
											CHANNELS 3 Xrotation Yrotation Zrotation
											JOINT mixamorig:RightHandPinky4
											{
												OFFSET -2.923874 0.000021 0.000259
												CHANNELS 3 Xrotation Yrotation Zrotation
												End Site
												{
													OFFSET -2.923820 -0.012876 -0.000336
												}
											}
										}
									}
								}
							}
						}
					}
				}
			}
		}
	}
	JOINT mixamorig:LeftUpLeg
	{
		OFFSET 9.124458 -0.055378 6.656387
		CHANNELS 3 Xrotation Yrotation Zrotation
		JOINT mixamorig:LeftLeg
		{
			OFFSET 0.244681 -0.515619 40.595421
			CHANNELS 3 Xrotation Yrotation Zrotation
			JOINT mixamorig:LeftFoot
			{
				OFFSET -0.244669 -2.059156 42.047928
				CHANNELS 3 Xrotation Yrotation Zrotation
				JOINT mixamorig:LeftToeBase
				{
					OFFSET 0.373535 13.966561 7.208548
					CHANNELS 3 Xrotation Yrotation Zrotation
					JOINT mixamorig:LeftToe_End
					{
						OFFSET -0.142059 9.997455 0.175224
						CHANNELS 3 Xrotation Yrotation Zrotation
						End Site
						{
							OFFSET -0.142060 9.997459 0.175223
						}
					}
				}
			}
		}
	}
	JOINT mixamorig:RightUpLeg
	{
		OFFSET -9.124448 -0.055378 6.656403
		CHANNELS 3 Xrotation Yrotation Zrotation
		JOINT mixamorig:RightLeg
		{
			OFFSET -0.244680 -0.514290 40.595459
			CHANNELS 3 Xrotation Yrotation Zrotation
			JOINT mixamorig:RightFoot
			{
				OFFSET 0.244670 -2.060535 42.047859
				CHANNELS 3 Xrotation Yrotation Zrotation
				JOINT mixamorig:RightToeBase
				{
					OFFSET -0.373535 13.966558 7.208539
					CHANNELS 3 Xrotation Yrotation Zrotation
					JOINT mixamorig:RightToe_End
					{
						OFFSET 0.141798 9.997463 0.175009
						CHANNELS 3 Xrotation Yrotation Zrotation
						End Site
						{
							OFFSET 0.141798 9.997467 0.175009
						}
					}
				}
			}
		}
	}
}
MOTION
Frames: 5
Frame Time: 0.033333
-58.435387 -216.678085 -193.087051 -6.268611 -0.342305 2.257601 2.162504 -0.178124 1.010681 0.960726 -0.083875 0.448358 1.681678 -0.141840 0.785516 21.284888 0.926300 0.557948 3.335401 1.534069 1.288934 -0.000002 -0.000000 -0.000000 8.346727 -10.779491 4.158872 -20.266134 -73.787640 -11.101612 -0.337520 -1.175609 -1.998709 0.032527 -10.293229 3.746682 0.000001 -0.000003 0.000004 0.000000 -0.000001 -0.000002 0.000000 -0.000003 0.000001 -0.000001 0.000000 -0.000006 -0.000000 -0.000001 -0.000000 -0.000000 0.000001 0.000001 -0.000000 0.000001 -0.000001 -0.000000 0.000000 -0.000001 -0.000000 0.000001 -0.000000 -0.000000 0.000000 0.000000 -0.000000 0.000000 0.000000 -0.000000 0.000001 -0.000001 -0.000000 -0.000001 -0.000000 -0.000000 0.000000 -0.000000 0.000000 0.000001 -0.000000 -0.000000 0.000001 -0.000000 -0.000000 -0.000001 -0.000000 -0.000000 0.000000 0.000000 -0.000000 0.000000 0.000000 -0.000000 0.000001 0.000000 1.830264 11.080553 -5.129936 24.363826 79.217203 -24.839790 -7.176178 -3.948088 2.061540 6.489086 -3.412901 -0.819596 -0.000001 0.000002 -0.000001 -0.000002 0.000000 -0.000002 -0.000001 0.000003 -0.000000 0.000000 0.000004 0.000004 0.000000 -0.000001 0.000000 -0.000001 0.000000 -0.000000 -0.000000 -0.000000 -0.000000 0.000000 -0.000000 -0.000000 -0.000000 -0.000001 0.000000 0.000000 0.000000 0.000000 -0.000000 0.000000 0.000000 -0.000000 0.000000 0.000000 0.000000 -0.000001 0.000000 0.000001 -0.000000 0.000000 0.000001 -0.000000 0.000000 -0.000000 0.000000 -0.000000 0.000000 -0.000001 0.000000 -0.000000 0.000000 0.000000 -0.000000 -0.000000 -0.000000 -0.000000 -0.000000 0.000000 5.537312 -1.508376 2.039431 7.083005 0.354213 0.144909 -6.006470 1.264279 3.063469 0.000007 -0.001905 -0.000037 0.000000 -0.000000 0.000000 9.444694 1.537043 3.191207 3.789433 0.009450 0.535531 -6.707659 0.413212 -0.583075 0.000021 0.000545 0.000019 -0.000000 -0.000000 0.000000 
-58.430237 -216.675522 -193.086472 -6.241818 -0.341199 2.249470 2.117971 -0.179740 0.990841 0.940920 -0.084406 0.439548 1.647043 -0.142966 0.770089 21.306123 0.921895 0.575228 3.374822 1.521205 1.319024 -0.000001 -0.000000 -0.000000 8.425991 -10.774250 4.215400 -20.384549 -73.773570 -11.215673 -0.352218 -1.173909 -2.008939 0.043492 -10.336434 3.730468 0.000000 0.000000 0.000003 -0.000000 -0.000001 -0.000002 0.000002 -0.000000 0.000001 0.000001 0.000004 -0.000001 -0.000000 0.000000 -0.000000 -0.000000 0.000001 0.000000 -0.000001 -0.000000 0.000000 -0.000000 -0.000000 0.000000 -0.000000 0.000001 -0.000000 0.000000 0.000000 0.000000 0.000000 0.000001 0.000000 0.000000 0.000000 -0.000000 -0.000000 0.000000 -0.000001 0.000000 0.000000 0.000000 -0.000000 0.000000 -0.000000 -0.000000 0.000001 0.000000 -0.000000 0.000001 -0.000000 -0.000000 0.000000 0.000001 -0.000000 0.000001 -0.000000 0.000000 0.000002 0.000000 1.852931 11.103477 -5.154024 24.092703 79.230112 -24.499130 -7.169377 -3.936246 2.068154 6.495079 -3.394671 -0.821754 -0.000000 0.000002 0.000000 -0.000000 0.000000 -0.000002 0.000000 0.000003 0.000001 -0.000002 -0.000000 -0.000001 0.000000 -0.000000 0.000000 0.000001 0.000000 0.000000 -0.000000 -0.000000 0.000000 -0.000000 0.000000 -0.000000 0.000000 -0.000001 0.000000 0.000000 -0.000000 0.000000 0.000000 -0.000000 -0.000000 0.000000 0.000000 0.000000 0.000000 -0.000001 0.000000 0.000001 -0.000001 0.000000 0.000000 -0.000001 0.000000 0.000000 -0.000001 0.000000 0.000000 -0.000001 0.000000 0.000001 0.000000 0.000000 -0.000000 -0.000000 -0.000000 0.000000 -0.000000 0.000000 5.517318 -1.508194 2.032735 7.071388 0.350105 0.151354 -6.002141 1.268743 3.072240 0.000013 -0.001907 -0.000046 0.000000 -0.000000 0.000000 9.424495 1.534106 3.183796 3.780581 0.011910 0.541887 -6.705832 0.415662 -0.575500 0.000032 0.000546 0.000009 -0.000000 -0.000000 -0.000000 
-58.425625 -216.675552 -193.085968 -6.215870 -0.339828 2.253519 2.082002 -0.181280 0.961137 0.924942 -0.084881 0.426357 1.619073 -0.144018 0.746992 21.316401 0.923046 0.593734 3.393828 1.518064 1.353104 -0.000003 -0.000000 -0.000000 8.473012 -10.770811 4.258642 -20.449079 -73.760415 -11.287239 -0.343335 -1.175420 -2.016807 0.054774 -10.367344 3.719743 0.000002 0.000002 -0.000001 -0.000000 -0.000003 0.000000 0.000002 0.000002 0.000001 0.000002 0.000003 0.000003 0.000000 -0.000001 0.000001 -0.000000 -0.000001 0.000000 -0.000000 -0.000000 0.000000 -0.000000 -0.000000 0.000000 0.000000 -0.000000 0.000001 -0.000000 0.000000 0.000000 -0.000000 0.000000 0.000000 0.000000 -0.000000 0.000000 0.000000 -0.000000 0.000000 -0.000000 0.000000 0.000000 -0.000000 -0.000000 -0.000001 -0.000000 -0.000001 0.000000 0.000000 0.000000 -0.000000 0.000000 0.000000 0.000001 -0.000000 0.000000 -0.000001 -0.000000 -0.000001 -0.000000 1.871511 11.128285 -5.160390 23.696744 79.248684 -24.048799 -7.158657 -3.923329 2.059373 6.502485 -3.357582 -0.829103 -0.000000 -0.000000 -0.000001 -0.000002 0.000000 0.000002 -0.000001 0.000003 -0.000000 -0.000001 0.000000 0.000002 0.000001 -0.000001 0.000000 -0.000000 0.000000 0.000000 -0.000000 0.000000 -0.000000 -0.000000 0.000000 -0.000000 0.000000 -0.000000 0.000000 0.000000 -0.000000 0.000000 0.000001 -0.000000 -0.000000 0.000001 0.000000 -0.000000 0.000000 -0.000001 -0.000000 0.000000 -0.000000 0.000000 0.000001 -0.000000 -0.000000 0.000000 0.000001 -0.000000 0.000000 -0.000000 0.000000 0.000001 0.000000 0.000000 0.000000 0.000000 -0.000000 0.000000 -0.000000 0.000000 5.495520 -1.507608 2.021139 7.063517 0.342778 0.155387 -5.998511 1.272314 3.077098 0.000006 -0.001908 -0.000042 -0.000000 0.000000 -0.000000 9.400120 1.530390 3.169618 3.776125 0.011855 0.543880 -6.704452 0.418362 -0.568055 0.000031 0.000545 0.000020 -0.000000 -0.000001 -0.000001 
-58.421413 -216.676987 -193.085495 -6.190464 -0.338353 2.262904 2.050635 -0.183023 0.926593 0.911017 -0.085437 0.411007 1.594684 -0.145218 0.720128 21.319554 0.928490 0.613374 3.399514 1.522391 1.390589 0.000000 -0.000000 -0.000000 8.503955 -10.768097 4.294709 -20.484272 -73.747888 -11.335933 -0.326837 -1.178165 -2.021870 0.065579 -10.392517 3.712741 -0.000001 -0.000006 0.000004 -0.000001 -0.000003 0.000000 -0.000001 -0.000000 -0.000002 0.000001 -0.000001 0.000004 0.000000 -0.000002 0.000001 -0.000000 -0.000000 0.000001 -0.000000 0.000001 0.000000 -0.000000 0.000000 -0.000000 0.000000 -0.000002 0.000000 -0.000000 0.000001 0.000000 0.000000 0.000000 0.000000 0.000000 -0.000000 -0.000001 0.000000 -0.000002 0.000000 0.000000 -0.000000 0.000000 -0.000000 -0.000001 0.000000 0.000000 -0.000000 -0.000000 0.000000 -0.000001 0.000001 0.000000 0.000001 -0.000000 0.000000 0.000000 -0.000000 -0.000000 0.000001 0.000000 1.888025 11.154344 -5.158230 23.249616 79.268006 -23.555997 -7.145447 -3.909131 2.042661 6.510813 -3.311988 -0.838865 0.000001 -0.000000 0.000000 0.000001 0.000002 0.000000 -0.000000 0.000006 -0.000002 -0.000001 -0.000004 0.000000 0.000001 -0.000000 0.000000 -0.000000 -0.000000 0.000000 -0.000000 -0.000000 0.000000 0.000000 0.000000 -0.000000 0.000000 -0.000000 0.000000 0.000000 -0.000001 0.000000 0.000000 -0.000001 0.000000 0.000000 -0.000000 0.000000 0.000000 -0.000001 0.000000 0.000000 -0.000000 -0.000000 0.000000 -0.000000 -0.000000 0.000000 0.000000 -0.000000 0.000000 -0.000001 0.000000 0.000001 -0.000001 0.000000 -0.000000 -0.000000 -0.000000 0.000000 -0.000001 0.000000 5.472810 -1.506672 2.007326 7.057488 0.334007 0.158074 -5.995088 1.275254 3.080611 0.000005 -0.001909 -0.000050 -0.000000 0.000000 -0.000001 9.373614 1.526615 3.152100 3.774165 0.010458 0.543787 -6.703478 0.421050 -0.560064 0.000016 0.000547 0.000021 -0.000000 -0.000000 -0.000000 
-58.416187 -216.679718 -193.085144 -6.166636 -0.336559 2.263879 2.022702 -0.185793 0.900496 0.898610 -0.086500 0.399407 1.572967 -0.147256 0.699829 21.320523 0.938285 0.628142 3.401084 1.536066 1.420438 0.000001 -0.000000 -0.000000 8.536748 -10.766914 4.326471 -20.489622 -73.737609 -11.354345 -0.333243 -1.177861 -2.022032 0.071907 -10.415933 3.710348 0.000001 -0.000002 -0.000001 0.000001 -0.000003 0.000000 0.000001 0.000000 0.000001 -0.000000 0.000004 -0.000001 -0.000000 -0.000001 0.000000 -0.000000 0.000000 -0.000001 0.000000 -0.000000 -0.000000 0.000000 -0.000001 0.000000 -0.000000 -0.000001 0.000000 -0.000000 0.000001 -0.000000 -0.000000 0.000000 -0.000000 -0.000000 -0.000000 0.000000 0.000000 -0.000001 -0.000000 -0.000000 0.000001 -0.000000 -0.000000 0.000001 -0.000000 -0.000000 -0.000001 -0.000000 0.000000 -0.000001 0.000000 -0.000000 0.000000 -0.000000 0.000000 -0.000001 0.000000 -0.000000 -0.000000 -0.000001 1.898807 11.176038 -5.165851 22.942465 79.277821 -23.207332 -7.133269 -3.895602 2.038016 6.517173 -3.282953 -0.843127 -0.000000 0.000001 -0.000001 -0.000002 0.000000 -0.000002 -0.000000 0.000003 -0.000000 0.000003 -0.000000 0.000001 0.000001 0.000000 -0.000000 -0.000000 0.000000 0.000000 0.000000 -0.000000 -0.000000 0.000000 0.000000 -0.000000 0.000000 0.000001 -0.000000 0.000000 0.000000 0.000000 0.000001 -0.000000 0.000000 0.000000 0.000000 -0.000000 0.000001 0.000000 -0.000000 0.000000 0.000000 -0.000000 0.000001 -0.000000 -0.000000 -0.000000 -0.000000 -0.000000 -0.000000 0.000001 -0.000000 -0.000000 0.000000 0.000000 -0.000000 -0.000000 0.000000 0.000000 0.000000 0.000000 5.449371 -1.507591 1.999658 7.052704 0.328560 0.160104 -5.990707 1.277581 3.086587 -0.000001 -0.001906 -0.000036 -0.000000 -0.000000 0.000000 9.348623 1.522910 3.142283 3.772006 0.009716 0.544038 -6.702296 0.423889 -0.551648 0.000021 0.000544 0.000016 -0.000000 0.000000 0.000000 
